<?xml version="1.0" encoding="UTF-8"?>
<svg version="1.1" xmlns="http://www.w3.org/2000/svg" width="128" height="128">
<path d="M0,0 L9,0 L17,7 L51,41 L55,39 L93,1 L95,0 L104,0 L105,1 L105,10 L98,18 L64,52 L66,56 L76,66 L80,64 L85,59 L85,53 L88,52 L94,54 L96,58 L96,64 L90,64 L81,73 L87,80 L98,91 L103,94 L105,96 L104,100 L98,106 L94,105 L91,102 L88,97 L73,82 L66,88 L63,91 L63,97 L54,96 L50,96 L41,97 L41,91 L32,82 L25,88 L14,99 L11,104 L9,106 L5,105 L-1,99 L0,95 L3,92 L8,89 L23,74 L17,67 L14,64 L8,64 L9,55 L11,53 L17,52 L19,53 L19,59 L26,66 L30,64 L40,54 L38,50 L0,12 L-1,10 L-1,1 Z M51,64 L38,77 L40,81 L46,87 L58,87 L66,79 L64,75 L53,64 Z " fill="#C7EAFE" transform="translate(12,11)"/>
<path d="M0,0 L3,1 L3,7 L11,15 L12,17 L19,19 L20,25 L28,32 L30,34 L42,34 L50,26 L52,25 L54,18 L60,17 L67,9 L69,7 L69,1 L72,0 L78,2 L80,6 L80,12 L74,12 L65,21 L71,28 L82,39 L87,42 L89,44 L88,48 L82,54 L78,53 L75,50 L72,45 L57,30 L50,36 L47,39 L47,45 L38,44 L34,44 L25,45 L25,39 L16,30 L9,36 L-2,47 L-5,52 L-7,54 L-11,53 L-17,47 L-16,43 L-13,40 L-8,37 L7,22 L1,15 L-2,12 L-8,12 L-7,3 L-5,1 Z " fill="#FCB61B" transform="translate(28,63)"/>
<path d="M0,0 L7,6 L18,17 L26,24 L48,46 L55,54 L69,68 L69,75 L65,75 L53,63 L49,65 L38,76 L35,75 L34,69 L27,67 L29,63 L40,52 L38,48 L0,10 L-1,8 L-1,2 Z " fill="#2AA3E9" transform="translate(12,13)"/>
<path d="M0,0 L2,2 L2,8 L-5,16 L-40,51 L-44,49 L-46,45 L-38,38 L-22,22 L-17,17 Z " fill="#46B2F5" transform="translate(115,13)"/>
<path d="M0,0 L9,0 L17,7 L49,39 L47,42 L47,45 L46,47 L20,21 L12,14 L1,3 L-1,4 Z " fill="#D8F1FF" transform="translate(12,11)"/>
<path d="M0,0 L7,6 L19,18 L24,21 L26,23 L25,27 L19,33 L15,32 L12,29 L9,24 L-7,8 L-1,1 Z " fill="#3B1F2B" transform="translate(91,84)"/>
<path d="M0,0 L7,6 L6,10 L-10,26 L-13,31 L-15,33 L-19,32 L-25,26 L-24,22 L-21,19 L-16,16 Z " fill="#4D2839" transform="translate(36,84)"/>
<path d="M0,0 L3,0 L10,6 L25,21 L25,28 L21,28 L9,16 L5,18 L-6,29 L-9,28 L-9,21 L2,10 L0,6 L-2,3 Z " fill="#0F95E0" transform="translate(56,60)"/>
<path d="M0,0 L7,6 L18,17 L26,24 L25,26 L21,26 L22,29 L19,29 L0,10 L-1,8 L-1,2 Z " fill="#43B0F4" transform="translate(12,13)"/>
<path d="M0,0 L3,1 L3,7 L11,15 L12,17 L18,18 L14,24 L11,24 L-1,13 L-5,12 L-8,12 L-7,3 L-5,1 Z " fill="#FEDEAC" transform="translate(28,63)"/>
<path d="M0,0 L4,1 L13,4 L21,11 L29,19 L28,22 L21,23 L0,2 Z " fill="#8ED4FC" transform="translate(60,59)"/>
<path d="M0,0 L7,2 L9,6 L9,12 L3,12 L-6,21 L-10,24 L-15,22 L-17,18 L-11,17 L-4,9 L-2,7 L-2,1 Z " fill="#FEDEAC" transform="translate(99,63)"/>
<path d="M0,0 L1,3 L-2,4 L-2,7 L-4,7 L-1,10 L-3,14 L-19,30 L-23,28 L-25,24 L-17,17 Z " fill="#2AA4EC" transform="translate(94,34)"/>
<path d="M0,0 L9,0 L10,4 L7,4 L-10,21 L-11,18 L-10,9 L-2,1 Z " fill="#91D5FE" transform="translate(107,11)"/>
<path d="M0,0 L9,0 L17,7 L19,9 L20,20 L16,18 L1,3 L-1,4 Z " fill="#91D5FE" transform="translate(12,11)"/>
<path d="M0,0 L4,2 L6,6 L-6,18 L-13,17 L-13,13 Z " fill="#8DD4FC" transform="translate(53,64)"/>
<path d="M0,0 L7,6 L14,13 L12,18 L11,21 L1,11 L0,8 Z " fill="#E9F7FF" transform="translate(31,21)"/>
<path d="M0,0 L1,0 L1,8 L-3,15 L-6,18 L-8,18 L-8,16 L-12,15 L-16,17 L-10,10 Z " fill="#E4F5FE" transform="translate(96,21)"/>
<path d="M0,0 L4,1 L7,4 L6,8 L0,14 L-4,13 L-7,10 L-7,7 L-5,7 L-3,3 Z " fill="#FCB51A" transform="translate(110,103)"/>
<path d="M0,0 L3,0 L8,5 L8,7 L10,7 L9,11 L6,14 L2,13 L-4,7 L-3,3 Z " fill="#FCB51A" transform="translate(15,103)"/>
<path d="M0,0 L1,2 L0,6 L1,10 L-8,19 L-12,17 L-12,15 L-10,15 L-10,12 L-8,11 L-7,6 Z " fill="#3CADF2" transform="translate(102,26)"/>
<path d="M0,0 L4,2 L11,9 L10,11 L5,9 L6,13 L3,13 L-4,6 L-4,1 Z " fill="#36AAEE" transform="translate(37,38)"/>
<path d="M0,0 L4,2 L5,5 L-3,13 L-5,13 L-5,11 L-11,10 L-5,3 Z M-12,10 Z " fill="#D4EFFE" transform="translate(84,35)"/>
<path d="M0,0 L7,6 L10,9 L10,16 L6,16 L5,12 L-3,4 L-3,1 Z " fill="#0990DF" transform="translate(71,72)"/>
<path d="M0,0 L5,4 L4,8 L-2,13 L-7,7 Z " fill="#391E2A" transform="translate(91,84)"/>
<path d="M0,0 L7,6 L6,10 L2,13 L-4,7 L-3,3 Z " fill="#24141A" transform="translate(36,84)"/>
<path d="M0,0 L1,4 L0,6 L2,7 L0,11 L-3,14 L-7,12 L-9,8 L-1,1 Z " fill="#229EE7" transform="translate(78,50)"/>
<path d="M0,0 L5,4 L4,8 L0,12 L-4,11 L-6,7 Z " fill="#4D283B" transform="translate(105,98)"/>
<path d="M0,0 L5,5 L7,9 L4,12 L1,12 L-4,7 L-3,3 Z " fill="#4D283B" transform="translate(22,98)"/>
<path d="M0,0 L7,6 L6,10 L3,12 L-3,6 L-2,2 Z " fill="#28151D" transform="translate(26,94)"/>
<path d="M0,0 L4,1 L7,4 L6,8 L4,9 L-3,5 L-3,3 Z " fill="#FDD690" transform="translate(110,103)"/>
<path d="M0,0 L3,0 L6,3 L5,6 L-2,9 L-4,7 L-3,3 Z " fill="#FDD690" transform="translate(15,103)"/>
<path d="M0,0 L2,4 L5,5 L1,10 L0,4 L-5,4 L-7,10 L-9,10 L-9,2 L-2,2 Z " fill="#FFBA29" transform="translate(72,95)"/>
<path d="M0,0 L8,1 L4,7 L1,7 L-2,4 Z " fill="#F8D690" transform="translate(38,80)"/>
<path d="M0,0 L4,2 L2,6 L-2,6 L-6,2 L-6,1 Z " fill="#F9D794" transform="translate(88,80)"/>
<path d="M0,0 L2,1 L2,5 L0,5 L0,7 L-2,7 L-2,9 L-5,10 L-7,7 Z " fill="#100B09" transform="translate(91,84)"/>
</svg>
